# xmcd
#
# Track frame offsets: 
#        150
#        14097
#        29247
#        42982
#        61652
#        77102
#        89330
#        104255
#        120455
#        136355
#        150902
#        161630
#        173825
#        186462
#        200667
#        219347
#        234792
#        249334
#        270030
#        284895
#        304295
#        316350
#        331015
#        343140
#
# Disc length: 4774 seconds
#
# Revision: 0
# Processed by: cddbd v1.4PL0 Copyright (c) Steve Scherf et al.
# Submitted via: ExactAudioCopy v0.90b3
#
DISCID=5412a418
DTITLE=John Hammond - So Many Roads - The Complete Sessions
DYEAR=2001
DGENRE=Blues
TTITLE0=Down in the Bottom
TTITLE1=Long Distance Call
TTITLE2=Who Do You Love
TTITLE3=I Want You to Love Me
TTITLE4=Judgement Day
TTITLE5=So Many Roads, So Many Trains
TTITLE6=Rambling Blues
TTITLE7=O Yea
TTITLE8=You Can't Judge a Book by the Cover
TTITLE9=Gambling Blues
TTITLE10=Baby Please Don't Go
TTITLE11=Big Boss Man
TTITLE12=I Wish You Would
TTITLE13=Traveling Riverside
TTITLE14=They Call it Stormy Monday
TTITLE15=Statesboro Blues
TTITLE16=Keys to the Highway
TTITLE17=I Just Got Here
TTITLE18=I'm a Man
TTITLE19=Backdoor Man
TTITLE20=Baby Won't You Tell Me
TTITLE21=I Can't Be Satisfied
TTITLE22=Shake for Me
TTITLE23=I'm Leaving You
EXTD=
EXTT0=
EXTT1=
EXTT2=
EXTT3=
EXTT4=
EXTT5=
EXTT6=
EXTT7=
EXTT8=
EXTT9=
EXTT10=
EXTT11=
EXTT12=
EXTT13=
EXTT14=
EXTT15=
EXTT16=
EXTT17=
EXTT18=
EXTT19=
EXTT20=
EXTT21=
EXTT22=
EXTT23=
PLAYORDER=
